<svg width="22" height="23" viewBox="0 0 22 23" fill="none" xmlns="http://www.w3.org/2000/svg">
<g id="circles">
<path id="Vector 1" d="M9.4716 9.46283C7.73401 11.0118 7.43457 15.0646 7.43457 15.0646C7.43457 15.0646 11.4874 14.7652 13.0364 13.0276C14.4181 11.4777 14.5642 7.93506 14.5642 7.93506C14.5642 7.93506 11.0215 8.08115 9.4716 9.46283Z" fill="#B5B5B7"/>
<path id="Vector" d="M1 8.37496C1 10.1983 1.72432 11.947 3.01363 13.2363C4.30294 14.5256 6.05161 15.2499 7.87496 15.2499C9.69831 15.2499 11.447 14.5256 12.7363 13.2363C14.0256 11.947 14.7499 10.1983 14.7499 8.37496C14.7499 6.55161 14.0256 4.80294 12.7363 3.51363C11.447 2.22432 9.69831 1.5 7.87496 1.5C6.05161 1.5 4.30294 2.22432 3.01363 3.51363C1.72432 4.80294 1 6.55161 1 8.37496Z" stroke="#B5B5B7" stroke-width="1.5" stroke-linecap="round" stroke-linejoin="round"/>
<path id="Vector_2" d="M7.25 14.625C7.25 16.4483 7.97432 18.197 9.26363 19.4863C10.5529 20.7756 12.3016 21.4999 14.125 21.4999C15.9483 21.4999 17.697 20.7756 18.9863 19.4863C20.2756 18.197 20.9999 16.4483 20.9999 14.625C20.9999 12.8016 20.2756 11.0529 18.9863 9.76363C17.697 8.47432 15.9483 7.75 14.125 7.75C12.3016 7.75 10.5529 8.47432 9.26363 9.76363C7.97432 11.0529 7.25 12.8016 7.25 14.625Z" stroke="#B5B5B7" stroke-width="1.5" stroke-linecap="round" stroke-linejoin="round"/>
</g>
</svg>
