<svg width="12" height="12" viewBox="0 0 12 12" fill="none" xmlns="http://www.w3.org/2000/svg">
<g id="icon/close_12">
<path id="Vector" d="M9 2.99991C8.90624 2.90617 8.77908 2.85352 8.6465 2.85352C8.51392 2.85352 8.38677 2.90617 8.293 2.99991L6 5.29291L3.707 2.99991C3.61324 2.90617 3.48608 2.85352 3.3535 2.85352C3.22092 2.85352 3.09376 2.90617 3 2.99991C2.90626 3.09367 2.85361 3.22083 2.85361 3.35341C2.85361 3.48599 2.90626 3.61315 3 3.70691L5.293 5.99991L3 8.29291C2.90626 8.38667 2.85361 8.51383 2.85361 8.64641C2.85361 8.77899 2.90626 8.90615 3 8.99991C3.09376 9.09365 3.22092 9.1463 3.3535 9.1463C3.48608 9.1463 3.61324 9.09365 3.707 8.99991L6 6.70691L8.293 8.99991C8.38677 9.09365 8.51392 9.1463 8.6465 9.1463C8.77908 9.1463 8.90624 9.09365 9 8.99991C9.09374 8.90615 9.14639 8.77899 9.14639 8.64641C9.14639 8.51383 9.09374 8.38667 9 8.29291L6.707 5.99991L9 3.70691C9.09374 3.61315 9.14639 3.48599 9.14639 3.35341C9.14639 3.22083 9.09374 3.09367 9 2.99991Z" fill="#1A1B22"/>
</g>
</svg>
