<svg width="24" height="21" viewBox="0 0 24 21" fill="none" xmlns="http://www.w3.org/2000/svg">
<g id="Group">
<g id="Group_2">
<path id="Vector" d="M22.3233 7.05946H20.8106V5.54667C20.8106 4.62215 20.0585 3.86999 19.134 3.86999H17.6212V2.35734C17.6212 1.42977 16.8687 0.680664 15.9446 0.680664H1.67667C0.754453 0.680711 0 1.42743 0 2.35734V12.2635C0 13.188 0.752156 13.9402 1.67667 13.9402H3.18937V15.453C3.18937 16.3775 3.94153 17.1297 4.86605 17.1297H6.37875V18.6424C6.37875 19.5669 7.13091 20.319 8.05542 20.319H22.3234C23.2479 20.319 24 19.5669 24 18.6424V8.73609C24 7.81162 23.2478 7.05946 22.3233 7.05946ZM14.7343 2.35499L8.81063 8.16032L2.88708 2.35513L14.7343 2.35499ZM1.67442 12.2635L1.67475 3.51145L8.22464 9.93046C8.55019 10.2495 9.07116 10.2494 9.39661 9.93046L15.9465 3.5114L15.9447 12.2658L1.67442 12.2635ZM4.8638 15.4529V13.9402H15.9447C16.8692 13.9402 17.6213 13.1881 17.6213 12.2635V5.5447L19.1362 5.54517C19.1362 5.54517 19.1362 5.54568 19.1362 5.54671L19.134 15.4552L4.8638 15.4529ZM22.3233 18.6445L8.05317 18.6423V17.1296H19.134C20.0586 17.1296 20.8107 16.3774 20.8107 15.4529V8.73412L22.3256 8.73454C22.3256 8.73454 22.3257 8.73506 22.3257 8.73609L22.3233 18.6445Z" fill="#B5B5B7"/>
</g>
</g>
</svg>
