<svg width="25" height="24" viewBox="0 0 25 24" fill="none" xmlns="http://www.w3.org/2000/svg">
<g id="icon/link" clip-path="url(#clip0_1325_3781)">
<path id="Vector" d="M14.345 17.267L11.083 20.529C10.1359 21.4507 8.86403 21.9625 7.54247 21.9537C6.22091 21.9448 4.95597 21.416 4.02133 20.4816C3.08669 19.5473 2.55751 18.2825 2.54829 16.9609C2.53906 15.6393 3.05052 14.3673 3.97202 13.42L7.23402 10.155C7.42153 9.96732 7.52682 9.71287 7.52672 9.4476C7.52663 9.18233 7.42116 8.92796 7.23352 8.74046C7.04588 8.55295 6.79144 8.44766 6.52617 8.44775C6.2609 8.44785 6.00653 8.55332 5.81902 8.74096L2.55802 12.006C1.24029 13.3243 0.500264 15.1122 0.500733 16.9762C0.501201 18.8402 1.24213 20.6277 2.56052 21.9455C3.87891 23.2632 5.66677 24.0032 7.53079 24.0027C9.39481 24.0023 11.1823 23.2613 12.5 21.943L15.762 18.681C15.9442 18.4924 16.045 18.2398 16.0427 17.9776C16.0404 17.7154 15.9352 17.4645 15.7498 17.2791C15.5644 17.0937 15.3136 16.9886 15.0514 16.9863C14.7892 16.984 14.5366 17.0848 14.348 17.267H14.345Z" fill="#1D6BF3"/>
<path id="Vector_2" d="M22.444 2.06102C21.7933 1.40584 21.019 0.886303 20.166 0.532521C19.3131 0.178738 18.3984 -0.00225646 17.475 2.46408e-05C16.552 -0.00242709 15.6378 0.178103 14.7851 0.531176C13.9323 0.884249 13.158 1.40286 12.507 2.05702L9.23998 5.32002C9.05234 5.50753 8.94687 5.7619 8.94678 6.02717C8.94668 6.29244 9.05197 6.54688 9.23948 6.73452C9.42699 6.92217 9.68136 7.02763 9.94663 7.02773C10.2119 7.02782 10.4663 6.92253 10.654 6.73502L13.919 3.47302C14.3845 3.00467 14.9384 2.63333 15.5484 2.38048C16.1585 2.12764 16.8126 1.99833 17.473 2.00002C18.4672 2.00035 19.4391 2.29546 20.2657 2.84802C21.0922 3.40059 21.7364 4.18582 22.1168 5.10444C22.4972 6.02307 22.5967 7.03384 22.4027 8.009C22.2087 8.98416 21.73 9.87991 21.027 10.583L17.765 13.845C17.5773 14.0327 17.4719 14.2872 17.4719 14.5525C17.4719 14.8179 17.5773 15.0724 17.765 15.26C17.9526 15.4477 18.2071 15.5531 18.4725 15.5531C18.7378 15.5531 18.9923 15.4477 19.18 15.26L22.442 12C23.758 10.6811 24.4973 8.89413 24.4977 7.03094C24.498 5.16775 23.7595 3.38046 22.444 2.06102Z" fill="#1D6BF3"/>
<path id="Vector_3" d="M14.793 8.29292L8.79302 14.2929C8.69751 14.3852 8.62133 14.4955 8.56892 14.6175C8.51651 14.7395 8.48892 14.8707 8.48777 15.0035C8.48662 15.1363 8.51192 15.268 8.5622 15.3909C8.61248 15.5138 8.68673 15.6254 8.78063 15.7193C8.87452 15.8132 8.98617 15.8875 9.10907 15.9377C9.23196 15.988 9.36364 16.0133 9.49642 16.0122C9.6292 16.011 9.76042 15.9834 9.88242 15.931C10.0044 15.8786 10.1148 15.8024 10.207 15.7069L16.207 9.70692C16.3892 9.51832 16.49 9.26571 16.4877 9.00352C16.4854 8.74132 16.3802 8.49051 16.1948 8.3051C16.0094 8.11969 15.7586 8.01452 15.4964 8.01224C15.2342 8.00997 14.9816 8.11076 14.793 8.29292Z" fill="#1D6BF3"/>
</g>
<defs>
<clipPath id="clip0_1325_3781">
<rect width="24" height="24" fill="white" transform="translate(0.5)"/>
</clipPath>
</defs>
</svg>
