<svg width="24" height="24" viewBox="0 0 24 24" fill="none" xmlns="http://www.w3.org/2000/svg">
<g id="icon/link" clip-path="url(#clip0_1436_516)">
<path id="Vector" d="M13.845 17.267L10.583 20.529C9.63594 21.4508 8.36403 21.9626 7.04247 21.9537C5.72091 21.9449 4.45597 21.4161 3.52133 20.4817C2.58669 19.5473 2.05751 18.2825 2.04829 16.961C2.03906 15.6394 2.55052 14.3673 3.47202 13.42L6.73402 10.155C6.92153 9.96736 7.02682 9.71292 7.02672 9.44765C7.02663 9.18238 6.92116 8.92801 6.73352 8.7405C6.54588 8.55299 6.29144 8.44771 6.02617 8.4478C5.7609 8.44789 5.50653 8.55336 5.31902 8.741L2.05802 12.006C0.740293 13.3244 0.00026379 15.1123 0.000732645 16.9763C0.0012015 18.8403 0.742129 20.6278 2.06052 21.9455C3.37891 23.2632 5.16677 24.0033 7.03079 24.0028C8.89481 24.0023 10.6823 23.2614 12 21.943L15.262 18.681C15.4442 18.4924 15.545 18.2398 15.5427 17.9776C15.5404 17.7154 15.4352 17.4646 15.2498 17.2792C15.0644 17.0938 14.8136 16.9886 14.5514 16.9863C14.2892 16.984 14.0366 17.0848 13.848 17.267H13.845Z" fill="white"/>
<path id="Vector_2" d="M21.944 2.06099C21.2933 1.40581 20.519 0.886273 19.666 0.53249C18.8131 0.178708 17.8984 -0.00228697 16.975 -5.87682e-06C16.052 -0.00245761 15.1378 0.178072 14.2851 0.531145C13.4323 0.884219 12.658 1.40283 12.007 2.05699L8.73998 5.31999C8.55234 5.5075 8.44687 5.76187 8.44678 6.02714C8.44668 6.29241 8.55197 6.54685 8.73948 6.73449C8.92699 6.92213 9.18136 7.0276 9.44663 7.0277C9.7119 7.02779 9.96634 6.9225 10.154 6.73499L13.419 3.47299C13.8845 3.00464 14.4384 2.6333 15.0484 2.38045C15.6585 2.12761 16.3126 1.99829 16.973 1.99999C17.9672 2.00032 18.9391 2.29542 19.7657 2.84799C20.5922 3.40056 21.2364 4.18579 21.6168 5.10441C21.9972 6.02304 22.0967 7.03381 21.9027 8.00897C21.7087 8.98413 21.23 9.87988 20.527 10.583L17.265 13.845C17.0773 14.0326 16.9719 14.2871 16.9719 14.5525C16.9719 14.8179 17.0773 15.0724 17.265 15.26C17.4526 15.4476 17.7071 15.5531 17.9725 15.5531C18.2378 15.5531 18.4923 15.4476 18.68 15.26L21.942 12C23.258 10.6811 23.9973 8.8941 23.9977 7.03091C23.998 5.16772 23.2595 3.38043 21.944 2.06099Z" fill="white"/>
<path id="Vector_3" d="M14.2931 8.293L8.29308 14.293C8.19757 14.3852 8.12139 14.4956 8.06898 14.6176C8.01657 14.7396 7.98898 14.8708 7.98783 15.0036C7.98668 15.1364 8.01198 15.2681 8.06226 15.3909C8.11254 15.5138 8.18679 15.6255 8.28069 15.7194C8.37458 15.8133 8.48623 15.8875 8.60913 15.9378C8.73202 15.9881 8.8637 16.0134 8.99648 16.0122C9.12926 16.0111 9.26048 15.9835 9.38249 15.9311C9.50449 15.8787 9.61483 15.8025 9.70708 15.707L15.7071 9.70699C15.8892 9.51839 15.99 9.26579 15.9878 9.00359C15.9855 8.7414 15.8803 8.49058 15.6949 8.30518C15.5095 8.11977 15.2587 8.0146 14.9965 8.01232C14.7343 8.01004 14.4817 8.11084 14.2931 8.293Z" fill="white"/>
</g>
<defs>
<clipPath id="clip0_1436_516">
<rect width="24" height="24" fill="white"/>
</clipPath>
</defs>
</svg>
