<svg width="64" height="64" viewBox="0 0 64 64" fill="none" xmlns="http://www.w3.org/2000/svg">
<g clip-path="url(#clip0_154_3970)">
<path d="M42.3186 24.431L28.4996 38.249C28.4067 38.3423 28.2963 38.4163 28.1747 38.4668C28.0531 38.5173 27.9228 38.5433 27.7911 38.5433C27.6595 38.5433 27.5291 38.5173 27.4075 38.4668C27.286 38.4163 27.1755 38.3423 27.0826 38.249L21.7386 32.9C21.6457 32.8067 21.5353 32.7327 21.4137 32.6822C21.2921 32.6317 21.1618 32.6057 21.0301 32.6057C20.8985 32.6057 20.7681 32.6317 20.6465 32.6822C20.525 32.7327 20.4145 32.8067 20.3216 32.9C20.2284 32.9929 20.1543 33.1033 20.1038 33.2249C20.0533 33.3465 20.0273 33.4769 20.0273 33.6085C20.0273 33.7402 20.0533 33.8705 20.1038 33.9921C20.1543 34.1137 20.2284 34.2241 20.3216 34.317L25.6676 39.662C26.2316 40.2249 26.9958 40.5411 27.7926 40.5411C28.5894 40.5411 29.3537 40.2249 29.9176 39.662L43.7356 25.847C43.8288 25.7541 43.9026 25.6438 43.9531 25.5223C44.0035 25.4008 44.0294 25.2705 44.0294 25.139C44.0294 25.0075 44.0035 24.8772 43.9531 24.7557C43.9026 24.6343 43.8288 24.5239 43.7356 24.431C43.6427 24.3377 43.5323 24.2637 43.4107 24.2132C43.2891 24.1627 43.1588 24.1367 43.0271 24.1367C42.8955 24.1367 42.7651 24.1627 42.6435 24.2132C42.522 24.2637 42.4115 24.3377 42.3186 24.431Z" fill="#87CC9E"/>
</g>
<path fill-rule="evenodd" clip-rule="evenodd" d="M32 54C44.1503 54 54 44.1503 54 32C54 19.8497 44.1503 10 32 10C19.8497 10 10 19.8497 10 32C10 44.1503 19.8497 54 32 54ZM32 56C45.2548 56 56 45.2548 56 32C56 18.7452 45.2548 8 32 8C18.7452 8 8 18.7452 8 32C8 45.2548 18.7452 56 32 56Z" fill="#87CC9E"/>
<defs>
<clipPath id="clip0_154_3970">
<rect width="24" height="24" fill="white" transform="translate(20 20)"/>
</clipPath>
</defs>
</svg>
