<svg width="8" height="15" viewBox="0 0 8 15" fill="none" xmlns="http://www.w3.org/2000/svg">
<path d="M7.57738 1.93533C7.57732 2.20053 7.47193 2.45484 7.28438 2.64233L2.69838 7.22833C2.51589 7.41847 2.41399 7.6718 2.41399 7.93533C2.41399 8.19887 2.51589 8.4522 2.69838 8.64233L7.28438 13.2283C7.46654 13.4169 7.56733 13.6695 7.56506 13.9317C7.56278 14.1939 7.45761 14.4447 7.2722 14.6302C7.08679 14.8156 6.83598 14.9207 6.57378 14.923C6.31159 14.9253 6.05898 14.8245 5.87038 14.6423L1.28438 10.0563C0.738909 9.48471 0.43457 8.72495 0.43457 7.93483C0.43457 7.14471 0.738908 6.38495 1.28438 5.81333L5.87038 1.22833C6.01023 1.08852 6.1884 0.993318 6.38235 0.95475C6.5763 0.916183 6.77734 0.935986 6.96004 1.01166C7.14274 1.08733 7.2989 1.21547 7.40878 1.37988C7.51867 1.54429 7.57734 1.73758 7.57738 1.93533Z" fill="#1A1B22"/>
</svg>
